<?xml version="1.0" encoding="UTF-8"?>
<svg version="1.1" xmlns="http://www.w3.org/2000/svg" width="1080" height="184">
<path d="M0 0 C18.48 0 36.96 0 56 0 C66.69172486 27.65710647 77.36584653 55.32071717 88 83 C92.81080647 69.7331082 97.56428981 56.44761192 102.21875 43.125 C102.65251953 41.88387451 103.08628906 40.64274902 103.53320312 39.36401367 C105.31547584 34.26176294 107.09649401 29.15908066 108.87402344 24.05517578 C109.77028574 21.48203532 110.66805366 18.90942983 111.56750488 16.33740234 C112.40347366 13.9466356 113.23713857 11.55506173 114.0682373 9.16259766 C114.43952759 8.10218262 114.81081787 7.04176758 115.19335938 5.94921875 C115.68225647 4.54675903 115.68225647 4.54675903 116.18103027 3.1159668 C117 1 117 1 118 0 C119.77991924 -0.09370624 121.56356739 -0.11744271 123.34594727 -0.11352539 C125.05760826 -0.11341209 125.05760826 -0.11341209 126.80384827 -0.11329651 C128.0454924 -0.10813522 129.28713654 -0.10297394 130.56640625 -0.09765625 C132.46204567 -0.09553383 132.46204567 -0.09553383 134.39598083 -0.09336853 C137.76124889 -0.08870582 141.1264499 -0.0797148 144.49169922 -0.06866455 C147.9234967 -0.05844846 151.35530109 -0.05387049 154.78710938 -0.04882812 C161.52475824 -0.0377738 168.26237525 -0.0210171 175 0 C174.51171875 1.5625 174.0234375 3.125 173.53515625 4.6875 C171.74156124 12.43792517 171.85178454 20.19826715 171.85473633 28.11035156 C171.85137772 29.40897629 171.8480191 30.70760101 171.84455872 32.045578 C171.83577032 35.58919018 171.83338277 39.13277816 171.83274293 42.67640018 C171.8320294 44.89637817 171.82988935 47.11635012 171.82724571 49.3363266 C171.81800879 57.09840786 171.81390868 64.86047202 171.81469727 72.62255859 C171.81529735 79.82977447 171.80475484 87.03691534 171.7889536 94.24411225 C171.77582747 100.45502897 171.7705155 106.66592133 171.77115268 112.8768518 C171.77140621 116.57603203 171.76863575 120.27514555 171.75797462 123.97431183 C171.74638817 128.10694916 171.75107135 132.23942107 171.75708008 136.37207031 C171.75146057 137.57870834 171.74584106 138.78534637 171.74005127 140.02854919 C171.77119841 148.50016105 172.30360524 156.91081571 175 165 C154.87 165 134.74 165 114 165 C114.99 162.03 114.99 162.03 116 159 C117.29220275 151.68516554 117.13388748 144.37502044 117.11352539 136.96484375 C117.11324292 135.55481468 117.11340242 134.14478546 117.1139679 132.73475647 C117.11425353 128.92748734 117.10839464 125.12025004 117.10139394 121.31298828 C117.09512144 117.32649906 117.09455353 113.34000902 117.09336853 109.35351562 C117.09026667 101.81371561 117.08206878 94.27393019 117.07201904 86.73413658 C117.06082226 78.1464502 117.05533848 69.55876311 117.05032361 60.97107124 C117.03988517 43.31403924 117.02230799 25.6570208 117 8 C116.79073285 8.60482712 116.5814657 9.20965424 116.36585712 9.83280945 C114.14790481 16.24303607 111.92965909 22.65316111 109.71125793 29.06323242 C108.88812664 31.44178816 108.06506523 33.82036809 107.24208069 36.19897461 C92.60450492 78.5042746 77.79482248 120.74950406 63 163 C62.34 163 61.68 163 61 163 C51.28974573 137.97704348 41.79173795 112.87597943 32.34257507 87.7536087 C22.32844523 61.13019512 12.20898077 34.54938886 2 8 C1.9299296 19.63258599 1.87690308 31.26512029 1.84456348 42.89787579 C1.82902797 48.30170429 1.80801633 53.70538651 1.77368164 59.10913086 C1.74064945 64.34171257 1.72305642 69.5741552 1.71536827 74.80683327 C1.70990226 76.7851257 1.69923376 78.7634121 1.68280983 80.74164391 C1.45557036 109.29528338 5.15326243 139.25186771 24 162 C24.66 162.99 25.32 163.98 26 165 C17.42 165 8.84 165 0 165 C0 110.55 0 56.1 0 0 Z " fill="#601AEB" transform="translate(167,8)"/>
<path d="M0 0 C14.17102043 13.28795981 22.41178698 30.86336167 23.11238098 50.26068115 C23.18275354 54.03324863 23.18756189 57.80217486 23.15429688 61.57519531 C23.13284 64.46504595 23.15420965 67.35241154 23.1796875 70.2421875 C23.21220231 91.56026535 17.99803245 109.15235929 3.1953125 125.09375 C1.926875 126.269375 1.926875 126.269375 0.6328125 127.46875 C-0.22570312 128.28279297 -0.22570312 128.28279297 -1.1015625 129.11328125 C-16.80312326 143.52731403 -35.11639376 147.18987642 -55.84130859 146.59179688 C-73.73728819 145.72000355 -89.98350986 135.47493231 -102.0546875 122.78125 C-116.12062577 105.67949772 -119.54391933 86.37142208 -119.5546875 64.78125 C-119.56693359 63.50830078 -119.57917969 62.23535156 -119.59179688 60.92382812 C-119.62724394 37.68237114 -114.12298453 18.71426098 -98.0546875 1.65625 C-70.30836328 -24.46356556 -28.73391634 -24.55890285 0 0 Z M-63.16796875 -8.25 C-65.47135714 -4.94872674 -65.49741912 -1.99319748 -65.51435852 1.90080261 C-65.52151382 3.02927612 -65.52866913 4.15774963 -65.53604126 5.32041931 C-65.53873016 6.55941483 -65.54141907 7.79841034 -65.54418945 9.07495117 C-65.55076065 10.37927094 -65.55733185 11.6835907 -65.56410217 13.0274353 C-65.58512872 17.3555173 -65.59550466 21.68359959 -65.60546875 26.01171875 C-65.60951712 27.50329418 -65.61363407 28.99486942 -65.61781883 30.48644447 C-65.63686906 37.49595874 -65.65109927 44.50546249 -65.6594308 51.51499766 C-65.66919674 59.59729371 -65.6954999 67.67931542 -65.73593169 75.76151484 C-65.76613234 82.01388024 -65.78090349 88.26616719 -65.78421181 94.5186041 C-65.78655822 98.25024518 -65.79546451 101.98159313 -65.82067299 105.71315575 C-65.8483723 109.88080358 -65.84411055 114.04784202 -65.8371582 118.21557617 C-65.84996826 119.44445053 -65.86277832 120.67332489 -65.87597656 121.93943787 C-65.8265924 130.06537146 -64.96227017 135.87366733 -58.9921875 141.84375 C-53.74848391 145.08985222 -49.57951455 145.89280005 -43.54296875 145 C-38.63807913 143.80239679 -35.62604459 141.24643894 -33.0546875 137.03125 C-30.79584319 132.26257868 -30.24338914 128.26261281 -30.22674561 123.02397156 C-30.22103546 121.94323364 -30.21532532 120.86249573 -30.20944214 119.74900818 C-30.20832428 118.57330765 -30.20720642 117.39760712 -30.20605469 116.1862793 C-30.20108978 114.9401889 -30.19612488 113.69409851 -30.19100952 112.4102478 C-30.17892343 108.99894284 -30.17144878 105.58769899 -30.16699886 102.17637992 C-30.16406169 100.04238165 -30.1599557 97.90838867 -30.15549469 95.77439308 C-30.14183117 89.08951554 -30.13215869 82.40465018 -30.1282928 75.71975964 C-30.12381352 68.01787352 -30.10626697 60.31616499 -30.0772922 52.61433285 C-30.05563955 46.65067075 -30.04558663 40.68705848 -30.04425168 34.7233575 C-30.04320629 31.16618147 -30.03735544 27.60917264 -30.01943207 24.05203819 C-29.99981159 20.08110257 -30.00425465 16.11038713 -30.01074219 12.1394043 C-30.0015274 10.96977646 -29.99231262 9.80014862 -29.9828186 8.59507751 C-30.02228799 0.87577832 -30.97852542 -4.6923288 -35.1171875 -11.34375 C-38.95094015 -15.07100952 -43.13279905 -16.67330844 -48.4296875 -16.90625 C-55.40625751 -16.24181476 -58.83215213 -13.43932383 -63.16796875 -8.25 Z " fill="#601AEB" transform="translate(470.3671875,26.53125)"/>
<path d="M0 0 C15.10979835 17.17670472 19.72952744 36.00385119 19.52148438 58.27246094 C19.50001852 60.99764934 19.52141584 63.72020281 19.546875 66.4453125 C19.58165594 87.15039423 14.8583311 105.6373824 0.19995117 120.92358398 C-14.4036907 135.5422219 -31.09293822 143.1409757 -51.875 143.4375 C-71.2761867 143.30666873 -88.62296558 135.90143305 -102.54980469 122.47802734 C-121.60315601 103.05900564 -123.35520496 79.21365614 -123.15234375 53.54296875 C-122.79821588 32.90111881 -116.8016274 13.71078724 -102.0234375 -1.20703125 C-91.04756561 -11.67549398 -77.81454855 -18.08533305 -63 -21 C-62.22527344 -21.15597656 -61.45054687 -21.31195313 -60.65234375 -21.47265625 C-38.21392907 -24.82109892 -16.03001165 -15.2566339 0 0 Z M-66.80078125 -11.71875 C-69.11339763 -8.40425095 -69.13031253 -5.43286918 -69.14717102 -1.52325439 C-69.15432632 -0.38492157 -69.16148163 0.75341125 -69.16885376 1.92623901 C-69.17154266 3.17615631 -69.17423157 4.42607361 -69.17700195 5.71386719 C-69.18357315 7.02954681 -69.19014435 8.34522644 -69.19691467 9.70077515 C-69.21793999 14.06612939 -69.22831601 18.43148392 -69.23828125 22.796875 C-69.24232946 24.30085519 -69.2464464 25.80483519 -69.25063133 27.308815 C-69.2696801 34.37545838 -69.28391146 41.44209133 -69.2922433 48.50875545 C-69.30201323 56.66011097 -69.32832747 64.81119476 -69.36874419 72.96245456 C-69.39892726 79.26660857 -69.41371427 85.57068479 -69.41702431 91.87490964 C-69.41937243 95.63837574 -69.42830133 99.40155144 -69.45348549 103.16493988 C-69.47680976 106.70761118 -69.48098235 110.2498018 -69.47072411 113.79253006 C-69.4699947 115.70561089 -69.48905563 117.61866754 -69.50878906 119.53164673 C-69.4681928 126.25272725 -69.0850939 130.56834737 -65 136 C-61.1393041 139.75909864 -57.33503628 141.89025475 -51.86328125 142.0703125 C-46.13904108 141.73988098 -42.04773349 140.11372914 -38 136 C-34.87702318 130.89913787 -33.87819312 126.55354655 -33.85955811 120.64424133 C-33.85384796 119.55790909 -33.84813782 118.47157684 -33.84225464 117.35232544 C-33.84113678 116.16524994 -33.84001892 114.97817444 -33.83886719 113.75512695 C-33.83390228 112.50103531 -33.82893738 111.24694366 -33.82382202 109.95484924 C-33.81172221 106.51655937 -33.80425722 103.07833025 -33.79981136 99.64002633 C-33.79687613 97.48910719 -33.79277041 95.33819332 -33.78830719 93.18727684 C-33.77463649 86.44953414 -33.7649685 79.71180357 -33.7611053 72.97404796 C-33.75662949 65.21160176 -33.73910212 57.44933208 -33.7101047 49.68693954 C-33.68843947 43.6774225 -33.6783984 37.66795494 -33.67706418 31.65839928 C-33.67601934 28.07379022 -33.67018079 24.48934718 -33.65224457 20.90477943 C-33.63259728 16.90036053 -33.63707206 12.89630761 -33.64355469 8.8918457 C-33.6343399 7.71489136 -33.62512512 6.53793701 -33.6156311 5.32531738 C-33.65017847 -1.5010361 -33.69000426 -9.10848422 -38.3457756 -14.58220959 C-43.15439788 -18.84389917 -47.60633281 -20.45876831 -54.01953125 -20.2421875 C-59.92505944 -19.52001246 -63.18185221 -16.05006664 -66.80078125 -11.71875 Z " fill="#CB6EE6" transform="translate(813,30)"/>
<path d="M0 0 C51.81 0 103.62 0 157 0 C156.02815545 3.88737818 155.05333417 5.66008727 152.7890625 8.859375 C151.79616211 10.27283203 151.79616211 10.27283203 150.78320312 11.71484375 C150.07099609 12.71644531 149.35878906 13.71804687 148.625 14.75 C147.14808266 16.84870867 145.67152091 18.94766762 144.1953125 21.046875 C143.1110498 22.58311523 143.1110498 22.58311523 142.00488281 24.15039062 C139.47419427 27.7473459 136.9814698 31.36900452 134.5 35 C129.33921223 42.53067844 124.12003267 50.02040003 118.90234375 57.51171875 C115.08428476 62.9961033 111.27847717 68.48827642 107.5 74 C102.33801536 81.5298675 97.12004103 89.02038802 91.90234375 96.51171875 C87.65249114 102.61634574 83.42376631 108.73464264 79.21826172 114.86987305 C75.21475369 120.70332342 71.17002711 126.50779069 67.125 132.3125 C60.02527611 142.50226355 52.99173376 152.73588773 46 163 C50.56742943 163.07542118 55.13447895 163.12918599 59.70239258 163.16479492 C61.24900645 163.1796739 62.79557978 163.19998363 64.34204102 163.22631836 C89.93810929 163.65056258 111.26574316 156.6150646 130.30859375 138.875 C135.15345271 133.69964994 139.08487418 127.89392043 143 122 C144.33603075 126.00809225 143.81224667 129.64815815 143.4765625 133.7890625 C143.41093109 134.64809174 143.34529968 135.50712097 143.27767944 136.3921814 C143.13761775 138.20634619 142.99452617 140.02027924 142.84863281 141.83398438 C142.6253584 144.620527 142.41354246 147.40777272 142.203125 150.1953125 C142.06578564 151.95578246 141.92778747 153.71620118 141.7890625 155.4765625 C141.69366684 156.73431992 141.69366684 156.73431992 141.59634399 158.01748657 C141.1153238 163.8846762 141.1153238 163.8846762 140 165 C137.91172679 165.09685318 135.82011638 165.12186882 133.729599 165.12025452 C133.06720909 165.12110894 132.40481918 165.12196337 131.72235686 165.12284368 C129.4866713 165.12450033 127.25105958 165.11897414 125.01538086 165.11352539 C123.41919456 165.11324353 121.82300813 165.11340123 120.2268219 165.1139679 C115.87990105 165.11425592 111.53300756 165.10835835 107.18609309 165.10139394 C102.64836053 165.09516128 98.11062741 165.09455667 93.57289124 165.09336853 C84.9739216 165.09025495 76.37496461 165.08204122 67.77600056 165.07201904 C57.98898272 165.06085872 48.20196429 165.05534766 38.41494167 165.05032361 C18.27662071 165.03985862 -1.86168885 165.02225868 -22 165 C-20.88228037 163.23546305 -19.76350659 161.47159381 -18.64428711 159.70800781 C-18.0213829 158.72568176 -17.3984787 157.74335571 -16.75669861 156.73126221 C-14.78003087 153.6579986 -12.71416251 150.70310744 -10.5625 147.75 C-0.89445821 134.37058455 8.44352704 120.7512691 17.77709961 107.13720703 C22.51697782 100.2308538 27.31029279 93.3617584 32.09765625 86.48828125 C35.91571585 81.00389583 39.72142379 75.51165624 43.5 70 C49.91572154 60.64449929 56.40539001 51.34048402 62.88867188 42.03173828 C66.40639672 36.98050018 69.92199392 31.92778243 73.4375 26.875 C74.06293701 25.97644287 74.68837402 25.07788574 75.33276367 24.15209961 C80.23330003 17.10931586 85.11848629 10.05597437 90 3 C65.61313125 1.93380493 65.61313125 1.93380493 42 7 C40.948125 7.36222656 39.89625 7.72445313 38.8125 8.09765625 C23.745106 13.76714762 10.14114673 24.31516397 1.4375 37.87109375 C0.10181199 39.84921865 -1.29456277 41.34682426 -3 43 C-3.12401997 34.09352913 -2.78717508 25.31348484 -2.0625 16.4375 C-1.97548828 15.28958984 -1.88847656 14.14167969 -1.79882812 12.95898438 C-1.44588143 8.49094069 -1.08971282 4.35885129 0 0 Z " fill="#CB6DE6" transform="translate(524,8)"/>
<path d="M0 0 C9.47168889 -2.88965681 18.9823556 -4.66266922 28.8125 -5.6875 C29.92494898 -5.80434647 29.92494898 -5.80434647 31.05987167 -5.92355347 C50.36522901 -7.7036694 66.13470754 -3.50431887 81.19921875 8.93115234 C94.59614354 20.19484243 106.80650433 32.79041047 118.8125 45.5 C119.58400414 46.3154122 119.58400414 46.3154122 120.37109423 47.14729738 C133.91277973 61.47274659 147.10836708 76.08571234 160 91 C160.03236962 88.014234 160.05576783 85.02882757 160.07421875 82.04296875 C160.08914368 80.79283997 160.08914368 80.79283997 160.10437012 79.51745605 C160.21551525 55.43406051 151.74427765 29.95884134 134.7890625 12.59765625 C131.33068804 9.37662121 127.76118904 6.37888577 123.99609375 3.5234375 C122 2 122 2 120 0 C134.19 0 148.38 0 163 0 C163 55.77 163 111.54 163 169 C155.11114431 162.23812369 155.11114431 162.23812369 152.28125 159.4140625 C151.65863281 158.79273438 151.03601563 158.17140625 150.39453125 157.53125 C149.76933594 156.9021875 149.14414062 156.273125 148.5 155.625 C147.87480469 155.00367188 147.24960937 154.38234375 146.60546875 153.7421875 C143.50427348 150.63457154 140.51508128 147.48095102 137.65625 144.1484375 C133.36102876 139.17559558 128.67870519 134.60887376 124 130 C118.73968794 124.81820006 113.60749253 119.62939118 108.80078125 114.0234375 C105.22174099 110.00186948 101.33542131 106.27483014 97.5 102.5 C92.41039074 97.49079531 87.46995399 92.45977219 82.81835938 87.04101562 C79.23157312 83.01503106 75.34147178 79.28078502 71.5 75.5 C62.40262672 66.5463451 62.40262672 66.5463451 58.53125 62.03125 C54.28811954 57.08832335 49.63816274 52.56893643 45 48 C39.57921302 42.66012029 34.26199765 37.33464623 29.375 31.49609375 C28.05072456 29.87706069 28.05072456 29.87706069 26 29 C26.09428351 35.94803739 26.2017692 42.89579109 26.31738281 49.84350586 C26.35507601 52.19469869 26.390018 54.54593765 26.421875 56.8972168 C26.59431698 69.48278712 26.93449588 82.02512421 27.89453125 94.578125 C28.00473099 96.077136 28.00473099 96.077136 28.11715698 97.60643005 C30.29710368 123.66565012 41.16669213 146.56668831 61.203125 163.59765625 C63.35495755 165.27702122 65.62286353 166.66286073 68 168 C68 168.33 68 168.66 68 169 C53.81 169 39.62 169 25 169 C25.05873291 164.75713135 25.11746582 160.5142627 25.17797852 156.14282227 C25.36014248 142.07744749 25.44862377 128.01261296 25.48965549 113.94615269 C25.51677987 105.42251946 25.57522121 96.90133338 25.7097168 88.37866211 C25.82698619 80.94237785 25.88312619 73.50845253 25.86853737 66.071217 C25.86288852 62.13882352 25.88601459 58.21174911 25.98260689 54.28042793 C26.87802176 34.76690808 26.87802176 34.76690808 18.12866879 18.08116817 C15.26548907 15.42708309 12.27906699 13.03881543 9.14111137 10.71920586 C5.64158899 7.90926358 2.71559816 4.56610409 0 1 C0 0.67 0 0.34 0 0 Z " fill="#CB6EE6" transform="translate(842,4)"/>
<path d="M0 0 C0.78375 0.268125 1.5675 0.53625 2.375 0.8125 C4.169375 1.4003125 4.169375 1.4003125 6 2 C6.65742187 2.26425781 7.31484375 2.52851563 7.9921875 2.80078125 C20.51648001 7.37279807 33.94667067 5.59488981 46.44921875 1.97265625 C49.96852733 1.00862123 53.38802415 0.48394612 57 0 C57.27377724 0.95382065 57.27377724 0.95382065 57.55308533 1.9269104 C63.42689623 22.38759055 69.31891149 42.84299862 75.21990967 63.29585266 C76.02066895 66.07164797 76.82115073 68.84752319 77.62158203 71.62341309 C80.71746732 82.35883682 83.81761036 93.09301309 86.92607975 103.82480049 C88.31849801 108.63224356 89.70921829 113.44016182 91.09567261 118.24932861 C92.41385793 122.82131362 93.73699192 127.39183849 95.06376648 131.96133804 C95.55286636 133.64890195 96.04024687 135.33696531 96.52574158 137.02556992 C100.43871175 150.81384415 100.43871175 150.81384415 106 164 C85.87 164 65.74 164 45 164 C45 161.36 45 158.72 45 156 C44.40111609 152.81000025 44.40111609 152.81000025 43.43945312 149.72338867 C43.09910034 148.55245163 42.75874756 147.38151459 42.40808105 146.1750946 C41.85029968 144.31531731 41.85029968 144.31531731 41.28125 142.41796875 C40.89905349 141.11410296 40.51792706 139.80992307 40.13781738 138.50544739 C39.14085956 135.0926788 38.13184181 131.68360702 37.1194458 128.27539062 C35.49631856 122.80451303 33.89062969 117.32850776 32.28709412 111.85186195 C31.72622291 109.94339666 31.159112 108.03676873 30.59191895 106.13017273 C30.25156616 104.97499649 29.91121338 103.81982025 29.56054688 102.62963867 C29.2585437 101.61230148 28.95654053 100.59496429 28.64538574 99.54679871 C28 97 28 97 28 94 C10.18 94 -7.64 94 -26 94 C-26.66 96.97 -27.32 99.94 -28 103 C-28.28101562 104.11246094 -28.56203125 105.22492188 -28.8515625 106.37109375 C-32.47476592 120.73581436 -31.44596315 133.29701981 -23.8671875 146.32421875 C-18.92248484 153.41024663 -12.81136792 159.26412839 -5 163 C-5 163.33 -5 163.66 -5 164 C-19.19 164 -33.38 164 -48 164 C-41.94678692 142.75930253 -35.88205758 121.52310891 -29.7109375 100.31640625 C-29.45105293 99.42329113 -29.19116837 98.53017601 -28.92340851 97.6099968 C-27.07535641 91.26041805 -25.2253285 84.91141568 -23.375 78.5625 C-21.51741674 72.18806683 -19.6604616 65.8134515 -17.80490875 59.43842697 C-17.28722586 57.66007564 -16.76936019 55.8817775 -16.25130463 54.1035347 C-13.48469843 44.60542894 -10.73642397 35.10264208 -8.03613281 25.58544922 C-7.68412906 24.34618699 -7.68412906 24.34618699 -7.32501411 23.08188915 C-6.21655012 19.17783314 -5.11180395 15.27279191 -4.01351929 11.36585999 C-3.6258163 9.99639993 -3.23801515 8.62696766 -2.85009766 7.25756836 C-2.51515289 6.06739609 -2.18020813 4.87722382 -1.83511353 3.65098572 C-1 1 -1 1 0 0 Z M0 3 C-0.40343376 4.39489151 -0.40343376 4.39489151 -0.8150177 5.81796265 C-3.35946072 14.61525338 -5.90442685 23.41239263 -8.44989491 32.20938683 C-9.75827893 36.73115023 -11.06648362 41.25296535 -12.37426758 45.77490234 C-13.63820104 50.14519167 -14.90261981 54.51534032 -16.16736412 58.88539505 C-16.64791558 60.54614975 -17.12829713 62.20695363 -17.60849953 63.8678093 C-18.28516989 66.20806763 -18.96247324 68.54814197 -19.63989258 70.88818359 C-19.84852338 71.61030722 -20.05715418 72.33243084 -20.27210712 73.076437 C-21.63483945 77.78113597 -23.04582791 82.4683887 -24.52323914 87.13833618 C-25.12404392 89.1640784 -25.12404392 89.1640784 -25 92 C-7.84 92 9.32 92 27 92 C24.03158369 79.95249642 24.03158369 79.95249642 20.74169922 68.02075195 C20.54925629 67.36320419 20.35681335 66.70565643 20.15853882 66.02818298 C19.54374895 63.93060489 18.92441215 61.83440609 18.3046875 59.73828125 C17.86657729 58.24861318 17.42868518 56.75888096 16.99099731 55.26908875 C16.08378496 52.18374576 15.17435754 49.09906786 14.26318359 46.01489258 C13.09818076 42.07107152 11.93833933 38.12575445 10.78004265 34.1799593 C9.88108914 31.1193431 8.97974252 28.05943584 8.07764053 24.99974632 C7.64878671 23.54434055 7.22060233 22.08873732 6.79311752 20.63292885 C6.19763644 18.60654167 5.59900287 16.58111209 4.99951172 14.5559082 C4.66071991 13.40725784 4.3219281 12.25860748 3.97286987 11.07514954 C3.10066511 8.31819289 2.11608101 5.66607242 1 3 C0.67 3 0.34 3 0 3 Z " fill="#601AEB" transform="translate(52,9)"/>
<path d="M0 0 C20.13 0 40.26 0 61 0 C60.01 3.96 59.02 7.92 58 12 C57.57278689 15.54935975 57.57278689 15.54935975 57.6257782 18.72866821 C57.61876389 19.91710831 57.61174957 21.1055484 57.60452271 22.33000183 C57.61598831 24.21940239 57.61598831 24.21940239 57.62768555 26.14697266 C57.6252508 27.52166518 57.62152491 28.89635593 57.61662292 30.27104187 C57.60730531 33.96726254 57.61656053 37.66321416 57.62995505 41.35941362 C57.64136665 45.24777743 57.63715472 49.13612985 57.63520813 53.02450562 C57.63432841 59.54893326 57.6453396 66.07325637 57.66381836 72.59765625 C57.68499879 80.11856361 57.68849012 87.6393182 57.6822564 95.16024935 C57.6765439 102.42712884 57.68222944 109.69395507 57.69342995 116.96082687 C57.6980492 120.03951385 57.69896149 123.11816797 57.6968441 126.19685745 C57.69494772 129.8265812 57.70316775 133.45615147 57.7189045 137.08584023 C57.72510588 139.03756876 57.7216609 140.98932066 57.71783447 142.9410553 C57.70379774 154.27926408 57.70379774 154.27926408 61 165 C40.87 165 20.74 165 0 165 C0.66 163.02 1.32 161.04 2 159 C3.22435028 151.94541893 3.14790563 144.92724557 3.14526367 137.78198242 C3.14862228 136.47199783 3.1519809 135.16201324 3.15544128 133.81233215 C3.16422983 130.23779642 3.16661722 126.66328466 3.16725707 123.08873916 C3.16797049 120.8500079 3.17011032 118.61128263 3.17275429 116.37255287 C3.18199063 108.5467859 3.18609131 100.72103591 3.18530273 92.89526367 C3.18470238 85.62554409 3.19525031 78.35589882 3.2110464 71.08619803 C3.2241646 64.82349273 3.22948484 58.56081158 3.22884732 52.29809266 C3.2285936 48.56708648 3.23137508 44.83614641 3.24202538 41.10515404 C3.25359516 36.93878554 3.24893344 32.77258142 3.24291992 28.60620117 C3.25134918 26.7768251 3.25134918 26.7768251 3.25994873 24.91049194 C3.22840187 16.27721856 2.09023523 8.36094092 0 0 Z " fill="#CB6DE6" transform="translate(1014,8)"/>
<path d="M0 0 C2 2 2 2 2.22705078 4.04640198 C2.21657715 4.89033005 2.20610352 5.73425812 2.1953125 6.60375977 C2.18870605 7.56399551 2.18209961 8.52423126 2.17529297 9.51356506 C2.15869629 10.56225266 2.14209961 11.61094025 2.125 12.69140625 C2.11742676 13.78347885 2.10985352 14.87555145 2.10205078 16.00071716 C2.0695653 20.66969723 2.0145766 25.33832551 1.95898438 30.00708008 C1.82224824 42.56791362 1.8819155 55.03992367 2.85546875 67.5703125 C2.93132202 68.57014664 3.00717529 69.56998077 3.08532715 70.60011292 C5.35351 96.66810488 16.13975464 119.54379145 36.203125 136.59765625 C38.35495755 138.27702122 40.62286353 139.66286073 43 141 C43 141.33 43 141.66 43 142 C28.81 142 14.62 142 0 142 C0 95.14 0 48.28 0 0 Z " fill="#CF78E8" transform="translate(867,31)"/>
<path d="M0 0 C51.81 0 103.62 0 157 0 C157 0.33 157 0.66 157 1 C155.86964073 1.0154612 155.86964073 1.0154612 154.71644592 1.03123474 C137.58683922 1.2666974 120.4575827 1.51841691 103.32867432 1.8004303 C101.8758547 1.82432295 100.42303488 1.84820321 98.97021484 1.87207031 C98.27310143 1.88353057 97.57598801 1.89499083 96.85774994 1.90679836 C91.99252626 1.98596458 87.1272319 2.05261667 82.26176453 2.11454773 C78.63249503 2.16516856 75.00388486 2.23939019 71.375 2.3125 C69.60201538 2.3278479 69.60201538 2.3278479 67.79321289 2.34350586 C44.39153948 2.92130379 23.10816156 13.13082293 7 30 C5.01399273 32.55966202 3.18730817 35.14576752 1.4375 37.87109375 C0.10181199 39.84921865 -1.29456277 41.34682426 -3 43 C-3.12401997 34.09352913 -2.78717508 25.31348484 -2.0625 16.4375 C-1.97548828 15.28958984 -1.88847656 14.14167969 -1.79882812 12.95898438 C-1.44588143 8.49094069 -1.08971282 4.35885129 0 0 Z " fill="#D281E9" transform="translate(524,8)"/>
<path d="M0 0 C1.32 0.66 2.64 1.32 4 2 C3.34 2 2.68 2 2 2 C0.05245658 5.50773184 -0.99199925 9.09893899 -2.09130859 12.94897461 C-2.29000046 13.64068756 -2.48869232 14.33240051 -2.69340515 15.04507446 C-3.34873923 17.32980155 -3.99854907 19.6160623 -4.6484375 21.90234375 C-5.10644217 23.50227035 -5.56483256 25.10208659 -6.02359009 26.70179749 C-7.23210249 30.91921442 -8.43611958 35.1379008 -9.63897705 39.35693359 C-11.55564041 46.07693747 -13.4790153 52.79502271 -15.40254593 59.51306343 C-16.06855077 61.8415561 -16.73260487 64.17059775 -17.39633179 66.4997406 C-17.81414643 67.96199733 -18.23200133 69.42424256 -18.64990234 70.88647461 C-19.00805023 72.142379 -19.36619812 73.39828339 -19.73519897 74.69224548 C-21.43403365 80.47826448 -23.22658539 86.23640253 -25 92 C-7.51 91.67 9.98 91.34 28 91 C28 91.99 28 92.98 28 94 C10.18 94 -7.64 94 -26 94 C-26.66 96.97 -27.32 99.94 -28 103 C-28.28101562 104.11246094 -28.56203125 105.22492188 -28.8515625 106.37109375 C-32.47476592 120.73581436 -31.44596315 133.29701981 -23.8671875 146.32421875 C-18.92248484 153.41024663 -12.81136792 159.26412839 -5 163 C-5 163.33 -5 163.66 -5 164 C-19.19 164 -33.38 164 -48 164 C-41.94678692 142.75930253 -35.88205758 121.52310891 -29.7109375 100.31640625 C-29.45105293 99.42329113 -29.19116837 98.53017601 -28.92340851 97.6099968 C-27.07535641 91.26041805 -25.2253285 84.91141568 -23.375 78.5625 C-21.51741674 72.18806683 -19.6604616 65.8134515 -17.80490875 59.43842697 C-17.28722586 57.66007564 -16.76936019 55.8817775 -16.25130463 54.1035347 C-13.48469843 44.60542894 -10.73642397 35.10264208 -8.03613281 25.58544922 C-7.68412906 24.34618699 -7.68412906 24.34618699 -7.32501411 23.08188915 C-6.21655012 19.17783314 -5.11180395 15.27279191 -4.01351929 11.36585999 C-3.6258163 9.99639993 -3.23801515 8.62696766 -2.85009766 7.25756836 C-2.51515289 6.06739609 -2.18020813 4.87722382 -1.83511353 3.65098572 C-1 1 -1 1 0 0 Z " fill="#6522EB" transform="translate(52,9)"/>
<path d="M0 0 C18.48 0 36.96 0 56 0 C56 0.33 56 0.66 56 1 C37.85 1 19.7 1 1 1 C1.33 2.32 1.66 3.64 2 5 C2.07495449 7.95592475 2.09511297 10.88654114 2.06591797 13.84155273 C2.06124512 14.7349939 2.05657227 15.62843506 2.05175781 16.5489502 C2.0412563 18.49086658 2.02859395 20.4327722 2.01403427 22.3746624 C1.9919403 25.46820644 1.97790245 28.56168835 1.96633911 31.6552887 C1.93284822 40.45265184 1.89185327 49.24991535 1.82861328 58.04711914 C1.79047612 63.43342383 1.76778931 68.81962109 1.75430679 74.20604134 C1.74636104 76.24016353 1.73291213 78.2742733 1.71337509 80.30831718 C1.44288729 109.01583893 5.03906705 139.11403316 24 162 C24.66 162.99 25.32 163.98 26 165 C17.42 165 8.84 165 0 165 C0 110.55 0 56.1 0 0 Z " fill="#7437ED" transform="translate(167,8)"/>
<path d="M0 0 C1.32 0.66 2.64 1.32 4 2 C3.34 2 2.68 2 2 2 C0.05245658 5.50773184 -0.99199925 9.09893899 -2.09130859 12.94897461 C-2.29000046 13.64068756 -2.48869232 14.33240051 -2.69340515 15.04507446 C-3.34873923 17.32980155 -3.99854907 19.6160623 -4.6484375 21.90234375 C-5.10644217 23.50227035 -5.56483256 25.10208659 -6.02359009 26.70179749 C-7.23210249 30.91921442 -8.43611958 35.1379008 -9.63897705 39.35693359 C-11.55564041 46.07693747 -13.4790153 52.79502271 -15.40254593 59.51306343 C-16.06855077 61.8415561 -16.73260487 64.17059775 -17.39633179 66.4997406 C-17.81414643 67.96199733 -18.23200133 69.42424256 -18.64990234 70.88647461 C-19.00805023 72.142379 -19.36619812 73.39828339 -19.73519897 74.69224548 C-21.43403365 80.47826448 -23.22658539 86.23640253 -25 92 C-7.51 91.67 9.98 91.34 28 91 C28 91.99 28 92.98 28 94 C10.18 94 -7.64 94 -26 94 C-26.66 96.97 -27.32 99.94 -28 103 C-28.53867568 105.35485286 -29.08000261 107.70910218 -29.625 110.0625 C-29.88539062 111.18785156 -30.14578125 112.31320313 -30.4140625 113.47265625 C-30.60742188 114.30667969 -30.80078125 115.14070313 -31 116 C-32.12902832 114.52391052 -32.12902832 114.52391052 -33 112 C-32.45270364 109.08869791 -31.79114705 106.43834746 -30.93554688 103.61743164 C-30.57005234 102.35042168 -30.57005234 102.35042168 -30.19717407 101.05781555 C-29.38475161 98.25439444 -28.55181966 95.45750465 -27.71875 92.66015625 C-27.14605356 90.698734 -26.57466281 88.73693008 -26.0045166 86.77476501 C-24.49394962 81.58896918 -22.96606809 76.4084317 -21.43444824 71.2288208 C-19.90203395 66.03632854 -18.38501989 60.83934782 -16.8671875 55.64257812 C-15.14810155 49.75978233 -13.4275628 43.87744936 -11.69519043 37.99855042 C-11.42976692 37.09751807 -11.16434341 36.19648573 -10.89087677 35.26814938 C-10.36919625 33.4973597 -9.8472451 31.72664973 -9.32500458 29.95602512 C-7.96079912 25.31763561 -6.61956799 20.67369767 -5.3059082 16.02072144 C-5.03088722 15.04797744 -4.75586624 14.07523344 -4.47251129 13.07301235 C-3.94475291 11.20123284 -3.41989152 9.32863349 -2.89827728 7.45513248 C-2.66359993 6.62253627 -2.42892258 5.78994005 -2.18713379 4.93211365 C-1.98137978 4.19502891 -1.77562576 3.45794416 -1.56363678 2.69852352 C-1 1 -1 1 0 0 Z " fill="#AD89F4" transform="translate(52,9)"/>
<path d="M0 0 C0.66 0.33 1.32 0.66 2 1 C1.01 1.99 0.02 2.98 -1 4 C-0.67 4.66 -0.34 5.32 0 6 C-6.93 6 -13.86 6 -21 6 C-21 5.67 -21 5.34 -21 5 C-19.865625 4.855625 -18.73125 4.71125 -17.5625 4.5625 C-16.83675781 4.46839844 -16.11101562 4.37429687 -15.36328125 4.27734375 C-13.78077859 4.09162856 -12.19416865 3.93821521 -10.60546875 3.81640625 C-4.74475674 3.35342297 -4.74475674 3.35342297 0 0 Z " fill="#9364F1" transform="translate(433,167)"/>
<path d="M0 0 C1.32 0.66 2.64 1.32 4 2 C3.34 2 2.68 2 2 2 C-0.17975324 5.87058987 -1.34062815 10.02352055 -2.625 14.25 C-2.96917969 15.36761719 -2.96917969 15.36761719 -3.3203125 16.5078125 C-3.88332007 18.3375871 -4.44208228 20.16866703 -5 22 C-6.08533796 18.74398611 -5.94124229 17.97452725 -5.0390625 14.8046875 C-4.81476562 14.00675781 -4.59046875 13.20882813 -4.359375 12.38671875 C-4.11703125 11.55785156 -3.8746875 10.72898437 -3.625 9.875 C-3.39039063 9.03839844 -3.15578125 8.20179687 -2.9140625 7.33984375 C-1.14776431 1.14776431 -1.14776431 1.14776431 0 0 Z " fill="#A47CF3" transform="translate(52,9)"/>
<path d="M0 0 C1.18224668 3.54674003 0.89329634 5.97522995 0.5625 9.6875 C0.46066406 10.86699219 0.35882812 12.04648438 0.25390625 13.26171875 C0.17011719 14.16535156 0.08632813 15.06898438 0 16 C-0.33 16 -0.66 16 -1 16 C-1.33 13.03 -1.66 10.06 -2 7 C-2.99 7.66 -3.98 8.32 -5 9 C-3.7508258 5.54074837 -2.32472205 2.85306797 0 0 Z " fill="#DA98ED" transform="translate(667,130)"/>
</svg>
